<svg width="785" height="814" viewBox="0 0 785 814" fill="none" xmlns="http://www.w3.org/2000/svg">
<rect width="785" height="827" fill="white"/>
<path d="M210.5 374.5C210.5 413.988 178.488 446 139 446C99.5116 446 67.5 413.988 67.5 374.5C67.5 335.012 99.5116 303 139 303C178.488 303 210.5 335.012 210.5 374.5Z" fill="#D5D5D5"/>
<circle cx="544.5" cy="445.5" r="81.5" fill="#97B3DA"/>
<path d="M480.5 159.763C480.5 223.828 427.446 275.763 362 275.763C296.554 275.763 243.5 223.828 243.5 159.763C243.5 95.6981 296.554 43.7631 362 43.7631C427.446 43.7631 480.5 95.6981 480.5 159.763Z" fill="#A2D2F3"/>
<path d="M740 693.5C740 724.152 714.704 749 683.5 749C652.296 749 627 724.152 627 693.5C627 662.848 652.296 638 683.5 638C714.704 638 740 662.848 740 693.5Z" fill="#A2D2F3"/>
<path d="M319 594C319 623.271 294.823 647 265 647C235.177 647 211 623.271 211 594C211 564.729 235.177 541 265 541C294.823 541 319 564.729 319 594Z" fill="#82B7DC"/>
<ellipse cx="683.5" cy="202" rx="27.5" ry="27" fill="#82B7DC"/>
</svg>
